<?xml version="1.0" encoding="utf-8"?>
<svg width="246px" height="59px" viewbox="0 0 246 59" version="1.1" xmlns:xlink="http://www.w3.org/1999/xlink" xmlns="http://www.w3.org/2000/svg">
  <path d="M0.997628 0.314078L5.99278 0.0522853Q6.09104 0.0471357 6.18842 0.0612542Q6.28579 0.0753728 6.37854 0.108217Q6.47129 0.141061 6.55585 0.191369Q6.64041 0.241676 6.71353 0.307514Q6.78665 0.373352 6.84552 0.45219Q6.90439 0.531028 6.94675 0.619836Q6.98911 0.708644 7.01333 0.80401Q7.03755 0.899375 7.0427 0.997633L8.87454 35.9517Q8.87969 36.0499 8.86557 36.1473Q8.85145 36.2447 8.8186 36.3374Q8.78576 36.4302 8.73545 36.5147Q8.68514 36.5993 8.61931 36.6724Q8.55347 36.7456 8.47463 36.8044Q8.39579 36.8633 8.30699 36.9057Q8.21818 36.948 8.12281 36.9722Q8.02745 36.9964 7.92919 37.0016L2.93403 37.2634Q2.83578 37.2685 2.7384 37.2544Q2.64103 37.2403 2.54828 37.2075Q2.45553 37.1746 2.37097 37.1243Q2.28641 37.074 2.21329 37.0082Q2.14017 36.9423 2.0813 36.8635Q2.02243 36.7846 1.98007 36.6958Q1.93771 36.607 1.91349 36.5117Q1.88927 36.4163 1.88412 36.318L0.0522827 1.36399Q0.0471333 1.26573 0.061252 1.16836Q0.0753707 1.07099 0.108215 0.978236Q0.141059 0.885487 0.191367 0.800928Q0.241674 0.716368 0.307512 0.643248Q0.373349 0.570128 0.452187 0.511257Q0.531024 0.452386 0.619832 0.410027Q0.70864 0.367668 0.804005 0.343448Q0.899371 0.319228 0.997628 0.314078L0.997628 0.314078Z" transform="translate(16.173157 11.125793)" id="Rectangle" fill="#7A3C12" fill-rule="evenodd" stroke="none" />
  <path d="M0.999 0L10.001 0Q10.0994 0 10.1959 0.0191955Q10.2924 0.038391 10.3833 0.0760443Q10.4742 0.113698 10.556 0.168362Q10.6378 0.223026 10.7074 0.2926Q10.777 0.362175 10.8316 0.443985Q10.8863 0.525796 10.924 0.616699Q10.9616 0.707602 10.9808 0.804105Q11 0.900607 11 0.999L11 36.001Q11 36.0994 10.9808 36.1959Q10.9616 36.2924 10.924 36.3833Q10.8863 36.4742 10.8316 36.556Q10.777 36.6378 10.7074 36.7074Q10.6378 36.777 10.556 36.8316Q10.4742 36.8863 10.3833 36.924Q10.2924 36.9616 10.1959 36.9808Q10.0994 37 10.001 37L0.999 37Q0.900607 37 0.804105 36.9808Q0.707602 36.9616 0.616699 36.924Q0.525796 36.8863 0.443985 36.8316Q0.362175 36.777 0.2926 36.7074Q0.223026 36.6378 0.168362 36.556Q0.113698 36.4742 0.0760443 36.3833Q0.038391 36.2924 0.0191955 36.1959Q0 36.0994 0 36.001L0 0.999Q0 0.900607 0.0191955 0.804105Q0.038391 0.707602 0.0760443 0.616699Q0.113698 0.525796 0.168362 0.443985Q0.223026 0.362175 0.2926 0.2926Q0.362175 0.223026 0.443985 0.168362Q0.525796 0.113698 0.616699 0.0760443Q0.707602 0.038391 0.804105 0.0191955Q0.900607 0 0.999 0Z" transform="translate(5 11.441467)" id="Rectangle-2" fill="#BF1A1A" fill-rule="evenodd" stroke="none" />
  <path d="M0.986703 0.782322L4.93945 0.156276Q5.03663 0.140884 5.13495 0.144747Q5.23326 0.14861 5.32894 0.17158Q5.42461 0.194549 5.51397 0.235742Q5.60332 0.276935 5.68292 0.334769Q5.76252 0.392603 5.82931 0.464855Q5.8961 0.537107 5.94751 0.621001Q5.99892 0.704895 6.03298 0.797206Q6.06703 0.889517 6.08243 0.986699L11.558 35.5578Q11.5733 35.6549 11.5695 35.7533Q11.5656 35.8516 11.5426 35.9472Q11.5197 36.0429 11.4785 36.1323Q11.4373 36.2216 11.3795 36.3012Q11.3216 36.3808 11.2494 36.4476Q11.1771 36.5144 11.0932 36.5658Q11.0093 36.6172 10.917 36.6513Q10.8247 36.6853 10.7275 36.7007L6.77478 37.3268Q6.6776 37.3422 6.57929 37.3383Q6.48097 37.3345 6.3853 37.3115Q6.28962 37.2885 6.20027 37.2473Q6.11091 37.2061 6.03131 37.1483Q5.95171 37.0905 5.88492 37.0182Q5.81813 36.946 5.76672 36.8621Q5.71531 36.7782 5.68125 36.6859Q5.6472 36.5935 5.63181 36.4964L0.156279 1.9253Q0.140887 1.82812 0.144749 1.7298Q0.148612 1.63148 0.171582 1.53581Q0.194551 1.44014 0.235744 1.35078Q0.276938 1.26143 0.334772 1.18182Q0.392606 1.10222 0.464858 1.03543Q0.53711 0.968645 0.621004 0.917235Q0.704898 0.865825 0.79721 0.831769Q0.889521 0.797714 0.986703 0.782322L0.986703 0.782322Z" transform="translate(23.140015 10.958405)" id="Rectangle-3" fill="#071F70" fill-rule="evenodd" stroke="none" />
  <path d="M0 0L5 0L5 37L0 37L0 0Z" transform="translate(0 11.400024)" id="Rectangle-4" fill="#DA925F" fill-rule="evenodd" stroke="none" />
  <path d="M0 0L241 0L241 5L0 5L0 0Z" transform="translate(0 48.400024)" id="Rectangle-5" fill="#DA925F" fill-rule="evenodd" stroke="none" />
  <g id="Bookline" fill="#FFFFFF" transform="translate(34.900024 0)">
    <path d="M98.1538 47.2053L102.354 47.343Q103.249 47.343 103.799 46.8496Q104.35 46.3562 104.35 45.7136Q104.35 43.9006 101.458 43.9006L100.426 43.9006L100.426 38.2781Q103.249 37.4749 106.301 35.6619Q109.032 38.783 111.923 43.9006L110.363 43.9006Q109.146 43.9006 108.458 44.3596Q107.77 44.8186 107.77 45.6448Q107.77 47.343 109.973 47.343Q111.12 47.343 112.015 47.2742L114.333 47.2053L118.762 47.343Q119.657 47.343 120.208 46.8496Q120.759 46.3562 120.759 45.7136Q120.759 43.9006 117.867 43.9006L116.307 43.9006L113.576 39.2878Q111.877 36.488 109.353 33.6194Q113.461 30.4983 115.48 27.2625Q116.054 27.3084 116.49 27.3083L117.225 27.3083Q118.806 27.3084 119.349 26.5573Q119.634 26.1638 119.634 25.5642Q119.634 24.8298 119.095 24.325Q118.556 23.8201 117.339 23.8201L113.323 24.0955L108.596 23.9119Q107.356 23.9119 106.691 24.3938Q106.025 24.8757 106.025 25.6675Q106.025 26.4592 106.656 26.9412Q107.288 27.4231 108.389 27.4231L111.005 27.2854Q110.179 28.5247 108.963 29.6721Q105.222 33.1833 100.426 34.7668L100.426 12.988Q100.426 10.762 98.3374 10.762Q97.8555 10.762 97.4424 10.8767L96.4097 11.175Q95.7671 11.3586 94.4246 11.4849Q93.082 11.6111 92.4395 12.1274Q91.7969 12.6438 91.7969 13.3782Q91.7969 15.2371 93.8164 15.2371Q94.2983 15.2371 94.8721 15.1223L95.4229 14.9846Q95.6523 14.9387 95.8359 14.9387Q96.3867 14.9387 96.3867 16.3157L96.3867 43.9006L94.4131 43.9006Q93.1968 43.9006 92.5083 44.3596Q91.8198 44.8186 91.8198 45.6448Q91.8198 47.343 94.0229 47.343Q94.9409 47.343 95.8359 47.2742L98.1538 47.2053ZM135.079 42.4319Q136.571 42.4319 136.571 44.176Q136.571 45.4841 134.884 46.5857Q133.197 47.6873 130.925 47.6873Q127.093 47.6873 125.808 44.0613Q125.372 42.822 125.372 41.1238L125.372 16.2927Q125.372 15.3977 125.222 15.1682Q125.073 14.9387 124.798 14.9387L122.801 15.2141Q121.906 15.2141 121.321 14.7551Q120.736 14.2961 120.736 13.47Q120.736 11.7258 123.214 11.4734Q124.821 11.3357 125.727 11.0488Q126.634 10.762 127.575 10.762Q129.365 10.762 129.365 12.9651L129.365 38.5076Q129.365 41.7205 129.686 42.604Q130.007 43.4875 130.397 43.7629Q130.788 44.0383 131.602 44.0383Q132.417 44.0383 133.071 43.4646Q133.725 42.8909 134.092 42.6614Q134.459 42.4319 135.079 42.4319ZM33.5288 36.488Q33.5288 28.2952 25.7261 26.9871Q26.6899 26.4822 27.3784 25.7249Q29.3979 23.4529 29.3979 20.3088Q29.3979 17.1648 27.2178 14.9272Q25.0376 12.6897 20.9756 12.0242Q18.7725 11.657 12.2319 11.657Q5.69141 11.657 3.67188 11.9094Q0.89502 12.2996 0.89502 13.9978Q0.89502 14.8928 1.60645 15.4321Q2.31787 15.9714 3.45386 15.9714Q4.58984 15.9714 6.31104 15.6731L7.04541 15.5813L7.04541 43.5793Q5.98975 43.4875 5.00293 43.4875Q1.65234 43.4875 1.65234 45.5645Q1.65234 47.6414 4.4751 47.6414L8.97314 47.343C9.55452 47.343 10.1359 47.3583 10.7173 47.3889L15.1465 47.6184Q16.2021 47.6873 17.0742 47.6873Q25.3818 47.6873 29.6504 44.3596Q31.647 42.7991 32.5879 40.6877Q33.5288 38.5764 33.5288 36.488ZM146.829 18.427Q148.711 17.7615 148.711 15.5354Q148.711 14.5027 147.942 13.7798Q147.173 13.0569 145.808 13.0569Q144.442 13.0569 143.605 13.8601Q142.767 14.6633 142.767 15.8796Q142.767 17.0959 143.57 17.8533Q144.374 18.6106 145.337 18.6106Q146.301 18.6106 146.829 18.427ZM24.5098 22.6726Q23.3853 25.7937 17.6938 25.7937L11.291 25.7937L11.291 15.1453Q12.1172 15.0764 14.3547 15.0764Q16.5923 15.0764 19.1741 15.3403Q21.7559 15.6042 23.3164 17.073Q24.877 18.5417 24.877 20.5383Q24.877 21.6628 24.5098 22.6726ZM146.232 47.2053L150.547 47.343Q151.442 47.343 152.004 46.8496Q152.566 46.3562 152.566 45.7136Q152.566 43.9006 149.675 43.9006L147.862 43.9006L147.862 25.6101Q147.862 23.407 146.141 23.407Q145.223 23.407 144.247 23.6824Q143.272 23.9578 141.734 24.0955Q139.256 24.3479 139.256 26.092Q139.256 26.9182 139.83 27.4001Q140.403 27.8821 141.126 27.8821Q141.849 27.8821 142.434 27.7214Q143.02 27.5608 143.295 27.5608Q143.892 27.5608 143.892 28.9377L143.892 43.9006L142.102 43.9006Q140.931 43.9006 140.231 44.3596Q139.531 44.8186 139.531 45.6448Q139.531 47.343 141.757 47.343Q142.629 47.343 143.777 47.2742L144.787 47.2283Q145.269 47.2053 146.232 47.2053ZM156.56 47.343Q154.356 47.343 154.356 45.6448Q154.356 44.8186 155.045 44.3596Q155.733 43.9006 156.95 43.9006L158.992 43.9006L158.992 28.9377Q158.992 27.5608 158.396 27.5608Q158.074 27.5608 157.546 27.7214Q157.019 27.8821 156.261 27.8821Q155.504 27.8821 154.93 27.4001Q154.356 26.9182 154.356 26.092Q154.356 24.3479 156.835 24.0955Q158.143 23.9807 159.279 23.6938Q160.415 23.407 161.287 23.407Q162.962 23.407 162.962 25.6101L162.962 28.6165Q163.949 26.4133 166.198 25.002Q168.447 23.5906 170.949 23.5906Q175.401 23.5906 177.26 25.8396Q179.119 28.0886 179.119 31.8982L179.119 43.9006L180.656 43.9006Q183.548 43.9006 183.548 45.7136Q183.548 46.3562 182.997 46.8496Q182.446 47.343 181.115 47.343L177.076 47.2053L172.716 47.343Q170.513 47.343 170.513 45.6448Q170.513 44.8186 171.201 44.3596Q171.89 43.9006 173.106 43.9006L175.103 43.9006L175.103 33.3899Q175.103 28.5706 172.67 27.6067Q171.821 27.2625 170.627 27.2625Q168.172 27.2625 165.934 29.1443Q163.697 31.0261 162.962 33.9177L162.962 43.9006L164.5 43.9006Q167.392 43.9006 167.392 45.7136Q167.392 46.3562 166.841 46.8496Q166.29 47.343 164.959 47.343L160.92 47.2053L156.56 47.343ZM40.6545 27.0674Q37.3154 30.5442 37.3154 35.7881Q37.3154 41.032 40.425 44.3596Q43.5347 47.6873 48.6868 47.6873Q53.8389 47.6873 57.155 44.2449Q60.4712 40.8025 60.4712 35.4209Q60.4712 30.0393 57.2927 26.8149Q54.1143 23.5906 49.054 23.5906Q43.9937 23.5906 40.6545 27.0674ZM64.7168 35.7881Q64.7168 30.5442 68.0559 27.0674Q71.395 23.5906 76.4553 23.5906Q81.5156 23.5906 84.6941 26.8149Q87.8726 30.0393 87.8726 35.4209Q87.8726 40.8025 84.5564 44.2449Q81.2402 47.6873 76.0881 47.6873Q70.936 47.6873 67.8264 44.3596Q64.7168 41.032 64.7168 35.7881ZM208.195 41.927Q208.195 40.114 206.176 40.114Q205.143 40.114 204.489 41.5254Q203.835 42.9368 202.355 43.499Q200.875 44.0613 198.327 44.0613Q195.78 44.0613 193.439 42.2827Q191.098 40.5042 190.685 36.947Q194.334 37.0847 196.193 37.0847Q203.192 37.0847 205.694 35.5586Q208.195 34.0325 208.195 30.9343Q208.195 27.8362 205.636 25.7134Q203.078 23.5906 198.717 23.5906Q193.485 23.5906 190.042 27.1133Q186.6 30.636 186.6 35.8684Q186.6 38.5535 187.61 40.8025Q188.62 43.0515 190.295 44.5891Q193.668 47.6873 198.27 47.6873Q202.871 47.6873 205.717 45.6677Q206.933 44.7957 207.564 43.7744Q208.195 42.7532 208.195 41.927ZM43.4773 41.6975Q41.3086 39.3337 41.3086 35.5356Q41.3086 31.7375 43.3281 29.4771Q45.3477 27.2166 48.813 27.2166Q50.626 27.2166 52.0718 27.8362Q56.4551 29.718 56.4551 35.8914Q56.4551 39.6091 54.4011 41.8352Q52.3472 44.0613 48.9966 44.0613Q45.646 44.0613 43.4773 41.6975ZM68.71 35.5356Q68.71 39.3337 70.8787 41.6975Q73.0474 44.0613 76.3979 44.0613Q79.7485 44.0613 81.8025 41.8352Q83.8564 39.6091 83.8564 35.8914Q83.8564 29.718 79.4731 27.8362Q78.0273 27.2166 76.2144 27.2166Q72.749 27.2166 70.7295 29.4771Q68.71 31.7375 68.71 35.5356ZM192.36 33.5276L190.777 33.4817Q191.374 30.6589 193.554 28.9377Q195.734 27.2166 199.107 27.2166Q201.035 27.2166 202.619 28.2952Q204.202 29.3738 204.202 30.7737Q204.202 32.1736 202.894 32.8621Q201.586 33.5505 197.363 33.5505Q193.141 33.5505 192.36 33.5276ZM12.5991 44.1301Q11.8647 44.0842 11.291 44.0154L11.291 29.1902L19.8052 29.1902Q24.0508 29.1902 26.5752 30.9343Q29.0996 32.6785 29.0996 36.0291Q29.0996 44.2449 17.7627 44.2449Q15.3301 44.2449 14.0908 44.176L12.5991 44.1301Z" />
  </g>
</svg>